<?xml version="1.0" encoding="iso-8859-1"?>
<!-- Generator: Adobe Illustrator 19.0.0, SVG Export Plug-In . SVG Version: 6.00 Build 0)  -->
<svg version="1.1" id="Layer_1" xmlns="http://www.w3.org/2000/svg" xmlns:xlink="http://www.w3.org/1999/xlink" x="0px" y="0px"
	 viewBox="0 0 511.999 511.999" style="enable-background:new 0 0 511.999 511.999;" xml:space="preserve">
<g>
	<g>
		<path d="M249.618,0c-23.274,0-42.14,18.867-42.14,42.14c-0.001,23.313,18.932,42.141,42.14,42.141
			c23.046,0,42.14-18.677,42.14-42.14C291.758,18.867,272.891,0,249.618,0z"/>
	</g>
</g>
<g>
	<g>
		<path d="M362.551,219.501c4.005-4.853,5.538-11.287,4.15-17.425c-0.432-1.907-10.615-46.89-15.487-62.458
			c-4.407-14.081-8.692-24.281-16.422-31.612c-9.561-9.069-20.918-10.292-30.767-10.292h-20.841
			c-2.663,6.958-22.349,58.386-25.206,65.851l5.943-27.995c0.417-1.966,0.114-4.016-0.854-5.777l-8.16-14.843l7.255-13.195
			c1.081-1.965-0.344-4.377-2.589-4.377H239.66c-2.242,0-3.67,2.41-2.589,4.377l7.255,13.195l-8.192,14.897
			c-0.95,1.727-1.26,3.735-0.877,5.669l5.196,28.048c-2.598-6.664-22.125-58.618-24.945-65.851h-20.645
			c-26.4,0-48.36,21.477-48.493,47.876v149.379c-0.034,6.936,3.038,13.069,8.32,16.766c0,7.521,0,13.705,0,30.269h-0.639
			c-5.112,0-9.256,4.144-9.256,9.255v76.683c0,5.111,4.144,9.255,9.256,9.255h22.287c5.111,0,9.255-4.143,9.255-9.255v-76.683
			c0-4.768-3.605-8.69-8.237-9.197c0-16.709,0-13.091,0-29.922c5.565-3.604,9.645-9.842,9.68-16.967V145.794
			c0.011-2.166,2.147-3.913,4.312-3.907c2.165,0.007,3.915,1.762,3.915,3.927v146.218c-2.468,42.458-1.614,27.775-2.263,38.953
			c5.854,4.82,9.593,12.118,9.593,20.274v76.683c0,11.085-6.91,20.581-16.646,24.425l-1.965,33.817
			c-0.812,13.964,10.276,25.816,24.38,25.816c12.828,0,23.583-10.013,24.336-22.985c0.077-1.318,11.37-195.249,11.37-196.444h10.541
			c0.001,1.194,11.294,195.126,11.37,196.444c0.78,13.416,12.273,23.718,25.774,22.944c13.453-0.782,23.725-12.321,22.942-25.774
			c-0.101-1.746-11.298-194.56-11.374-195.516C305.585,288.788,301.013,294.071,362.551,219.501z M302.967,227.813v-86.848
			c0-0.685,0.276-1.339,0.767-1.817c0.49-0.477,1.153-0.738,1.836-0.72c0.014,0,0.028,0.001,0.042,0.001
			c1.048,0.028,1.958,0.728,2.257,1.733c2.421,8.179,12.988,44.095,16.946,61.178L302.967,227.813z"/>
	</g>
</g>
<g>
</g>
<g>
</g>
<g>
</g>
<g>
</g>
<g>
</g>
<g>
</g>
<g>
</g>
<g>
</g>
<g>
</g>
<g>
</g>
<g>
</g>
<g>
</g>
<g>
</g>
<g>
</g>
<g>
</g>
</svg>
